<?xml version="1.0" encoding="utf-8"?>
<!-- Svg Vector Icons : http://www.onlinewebfonts.com/icon -->
<!DOCTYPE svg PUBLIC "-//W3C//DTD SVG 1.1//EN" "http://www.w3.org/Graphics/SVG/1.1/DTD/svg11.dtd">
<svg version="1.1" xmlns="http://www.w3.org/2000/svg" xmlns:xlink="http://www.w3.org/1999/xlink" x="0px" y="0px" viewBox="0 0 256 256" enable-background="new 0 0 256 256" xml:space="preserve">
<metadata> Svg Vector Icons : http://www.onlinewebfonts.com/icon </metadata>
<g><g><g><path fill="#000000" d="M14.1,11.2c-1.5,0.8-2.4,1.6-3.1,3.1l-1.1,2V84c0,64.9,0,67.6,0.9,69.4c0.5,1.1,1.6,2.4,2.4,3c1.6,1.1,1.7,1.1,13.9,1.2l12.3,0.1v18.3v18.3L57.8,176l18.3-18.3H139h62.8l-0.3-70.4c-0.1-38.7-0.4-71-0.5-71.8c-0.2-1.6-2.5-4-4.5-4.7c-0.9-0.4-28.8-0.5-90.9-0.5H16.2L14.1,11.2z M164.8,61.7l0.1,7.5h-59h-59v-7.6V54l58.9,0.1l58.9,0.1L164.8,61.7z M164.4,106.1v7.4h-58.8H46.9v-7.4v-7.4h58.8h58.8L164.4,106.1L164.4,106.1z"/><path fill="#000000" d="M216.5,135.6v36.9h-62.8H90.8l0.2,19.2c0.2,21.2,0.2,21.3,3,23.3c1.4,1,1.7,1,23.1,1.3c11.9,0.2,33.8,0.3,48.6,0.4l27,0l14.5,14.5c8,8,14.7,14.5,14.8,14.5c0.2,0,0.4-6.5,0.4-14.5v-14.5h8.7c8.1,0,8.8-0.1,10.7-1.1c1.5-0.7,2.4-1.6,3.1-3.1l1-2v-52.8v-52.8l-1-2c-2-3.9-2-3.9-16.1-4.1l-12.4-0.1L216.5,135.6L216.5,135.6z"/></g></g></g>
</svg>