<?xml version="1.0" encoding="utf-8"?>
<!-- Svg Vector Icons : http://www.onlinewebfonts.com/icon -->
<!DOCTYPE svg PUBLIC "-//W3C//DTD SVG 1.1//EN" "http://www.w3.org/Graphics/SVG/1.1/DTD/svg11.dtd">
<svg version="1.1" xmlns="http://www.w3.org/2000/svg" xmlns:xlink="http://www.w3.org/1999/xlink" x="0px" y="0px" viewBox="0 0 256 256" enable-background="new 0 0 256 256" xml:space="preserve">
<metadata> Svg Vector Icons : http://www.onlinewebfonts.com/icon </metadata>
<g><g><path fill="#000000" d="M10,10v236L246,10H10z M36.8,36c0.8-0.7,2-1,3.5-0.7c1.1,0.2,3.4,1.7,7.1,4.4c3.7,2.7,5.7,4.6,6.2,5.5s0.6,1.8,0.5,2.7c-0.1,0.9-0.5,1.6-1.2,2.2c-0.7,0.6-1.5,0.8-2.5,0.7c-0.8-0.1-2.2-0.9-4.1-2.5c-1.9-1.6-3.8-3-5.8-4.3c-1.9-1.3-3.2-2.4-3.9-3.3c-0.7-0.9-1-1.7-1-2.3C35.6,37.5,36,36.7,36.8,36z M33.2,59.7c0.6-0.6,1.3-0.9,2-1c1-0.1,2.1,0.2,3.5,0.9l5.4,3.9c3.5,2.3,5.5,3.8,6.1,4.6c0.6,0.8,0.9,1.5,0.9,2c0,0.8-0.3,1.6-1,2.4c-0.7,0.8-1.5,1.1-2.6,1.1c-0.6,0-1.3-0.2-2.1-0.7l-6.1-4.1c-3.1-1.9-5-3.3-5.8-4c-0.8-0.7-1.2-1.6-1.2-2.6C32.3,61,32.6,60.2,33.2,59.7z M55.6,85.6c-0.8,1.9-2.1,4.4-3.9,7.5c-1.9,3-3.5,5.5-5,7.5c-1.4,2-3.1,4-4.9,6c-1.8,2.1-3.2,3.5-4.2,4.3c-1,0.8-2,1.3-3,1.3c-1,0.1-1.9-0.3-2.5-1.1c-0.6-0.8-0.9-1.8-0.6-3c0.2-0.9,0.8-2,1.9-3.3l5-5.3c1.6-1.7,3.3-3.9,5-6.4c1.8-2.6,3.2-5.1,4.3-7.5c1.1-2.5,2-4.1,2.6-5c0.7-0.8,1.3-1.3,1.8-1.6c0.7-0.3,1.5-0.2,2.4,0.3c0.9,0.5,1.5,1.2,1.8,2.3C56.4,82.8,56.2,84.1,55.6,85.6z M114.2,108.8c-1.7,1.2-3.8,2.3-6.4,3.1c-2.6,0.8-8.9,1.2-18.9,1.1c-5.8,0-10.5-0.2-14-0.5c-3.5-0.3-6.2-0.9-8.3-1.9c-2-1-3.3-2.7-3.9-5c-0.6-2.3-0.9-5.1-0.9-8.3V64.6l-6.5,2.3c-1,0.4-2,0.3-3-0.3c-0.9-0.5-1.6-1.3-1.9-2.2c-0.3-0.9-0.3-1.8,0.1-2.6c0.4-0.8,1.1-1.4,2.1-1.8l9.1-3.2V39.5c0-1.1,0.3-2,1-2.7c0.7-0.7,1.4-1.1,2.4-1.1c0.9,0,1.7,0.4,2.4,1.2s1,1.6,1,2.6v15l14.2-5.1V33.5c0-0.8,0.3-1.5,1-2.2c0.7-0.7,1.4-1,2.4-1c1,0,1.8,0.3,2.4,1c0.6,0.7,1,1.4,1,2.1V47l15.3-5.6c3.3-1.2,5.9-1.3,7.5-0.2c0.9,0.6,1.5,1.5,1.9,2.6c0.4,1.2,0.6,3.3,0.6,6.2l-0.3,19.4c0,1.9-0.1,3.8-0.4,5.8c-0.2,2-0.5,3.7-0.9,5.2c-0.4,1.5-1.3,2.9-2.8,4.4c-1.5,1.4-3.9,2.2-7.4,2.4c-1,0.1-2.4,0-4-0.1c-1.7-0.1-2.9-0.6-3.8-1.5c-0.9-0.9-1.3-1.8-1.3-2.7c0-1,0.3-1.7,1.1-2.2s1.7-0.7,3-0.7l3,0.4c0.8,0.1,1.6,0.1,2.3,0c1.2-0.1,2-0.4,2.6-0.9c0.6-0.5,1-1.7,1.4-3.3c0.4-1.7,0.6-3.7,0.6-6l0.4-17.2c0-1.9-0.2-3.1-0.8-3.5s-2-0.3-4.3,0.5l-13.8,4.9v39.9c0,0.9-0.3,1.8-0.9,2.4c-0.6,0.7-1.4,1-2.4,1s-1.7-0.3-2.4-1c-0.7-0.7-1-1.5-1-2.5V57.1l-14.1,5v34.9c0,1.9,0.1,3.5,0.3,4.6c0.2,1.1,0.7,1.9,1.5,2.4c0.8,0.5,1.9,0.8,3.2,1c1.3,0.2,3.7,0.3,7.2,0.5c3.5,0.2,6.1,0.3,7.7,0.2l6.2-0.3l7.4-0.2c1.8-0.1,3.2-0.4,4.3-0.9s2.1-1,2.9-1.8c0.8-0.8,1.3-2.1,1.6-4.1l0.3-4.6c0.1-0.9,0.4-1.8,0.9-2.5s1.6-1.3,3.4-1.5c1.7-0.2,2.6,1.3,2.7,4.6c0.1,3.3-0.1,5.9-0.5,7.7C117.1,105.4,115.9,107.6,114.2,108.8z"/></g></g>
</svg>